<svg version="1.1" id="Layer_1" xmlns="http://www.w3.org/2000/svg" xmlns:xlink="http://www.w3.org/1999/xlink" x="0px" y="0px"
	 width="100%" viewBox="0 0 512 512" enable-background="new 0 0 512 512" xml:space="preserve">
<path fill="#000000" opacity="1.000000" stroke="none" 
	d="
M513.000000,194.000000 
	C513.000000,300.640747 513.000000,406.781494 513.000000,512.961121 
	C342.400909,512.961121 171.801804,512.961121 1.101355,512.961121 
	C1.101355,342.442627 1.101355,171.885147 1.101355,1.163839 
	C171.666534,1.163839 342.333252,1.163839 513.000000,1.163839 
	C513.000000,65.198151 513.000000,129.349075 513.000000,194.000000 
M377.183014,245.534515 
	C348.761780,308.574524 275.288330,329.872894 218.892258,291.366364 
	C207.320007,283.464966 197.869415,273.442902 190.481110,261.536194 
	C187.553543,256.818207 188.418808,252.440811 192.482834,249.722992 
	C196.023743,247.354996 200.562973,248.569763 203.746552,252.799561 
	C205.048416,254.529251 206.170975,256.395203 207.492508,258.108582 
	C229.405090,286.518616 258.631531,298.072021 293.669983,293.243286 
	C331.486786,288.031647 360.462982,258.989014 367.993561,221.208588 
	C368.701416,217.657196 367.890594,215.638794 365.072632,213.658890 
	C335.293854,192.736267 319.449432,164.090469 317.821198,127.697105 
	C317.673248,124.389694 316.287811,122.539055 313.317841,121.310432 
	C306.341125,118.424316 299.066284,116.713066 291.656097,115.533806 
	C288.257996,114.993019 286.458038,115.870255 286.842255,120.131294 
	C289.463501,149.199478 281.414459,175.100571 263.198669,197.886353 
	C261.591187,199.897125 258.195496,201.676590 259.220703,204.310440 
	C260.444275,207.453888 264.225891,205.989349 266.881134,206.050385 
	C286.204224,206.494598 305.553375,205.444214 324.857147,206.695847 
	C341.558960,207.778748 352.549896,227.121811 345.111115,241.840805 
	C340.009888,251.934464 331.173431,254.927292 320.624359,254.921539 
	C295.292816,254.907745 269.961182,255.006409 244.629578,255.023361 
	C240.801346,255.025925 236.945145,255.091736 233.149994,254.682312 
	C222.430542,253.525925 215.165741,247.834290 212.508575,237.279526 
	C211.418228,232.948547 209.348206,232.681763 205.707581,233.539795 
	C197.800644,235.403320 189.871872,236.621216 181.610992,236.501266 
	C150.406342,236.048203 124.385620,224.327438 103.094696,201.706924 
	C101.872116,200.407990 100.977684,198.674728 98.669258,198.203415 
	C95.685669,201.736603 92.090080,204.814453 93.512154,210.578323 
	C94.408157,214.209946 92.042633,216.836975 88.982224,218.744293 
	C83.467888,222.180908 77.998474,225.689560 72.501358,229.153931 
	C63.906651,234.570450 55.061569,239.631271 46.775738,245.484314 
	C38.925739,251.029495 38.582626,254.779724 43.910309,262.658020 
	C49.661163,271.162048 57.043655,278.179810 64.940529,284.601318 
	C69.477844,288.290924 70.519165,292.434875 68.920532,297.844360 
	C66.374710,306.459015 64.075706,315.147125 61.711605,323.814850 
	C59.076019,333.477875 60.966866,336.876343 70.522064,339.550415 
	C79.656700,342.106812 88.835724,344.506683 97.951935,347.126099 
	C103.876778,348.828491 106.547325,353.018005 105.049156,357.759644 
	C103.652840,362.178925 99.295662,363.830170 93.510010,362.518890 
	C88.561935,361.397522 83.851181,359.058960 78.121094,359.186035 
	C78.320122,361.252930 78.313774,363.072876 78.694077,364.808105 
	C80.294395,372.110046 81.821396,379.436401 83.723511,386.662140 
	C87.541023,401.164032 91.738434,415.522247 99.739594,428.462402 
	C104.835388,436.703796 112.018272,441.302521 121.565178,442.552094 
	C137.037735,444.577240 152.468079,443.588165 167.898834,442.124908 
	C182.971420,440.695587 197.919296,438.434509 212.827835,435.782776 
	C221.362778,434.264648 224.410950,437.254456 224.421005,446.057617 
	C224.441208,463.723114 224.398529,481.388702 224.421738,499.054199 
	C224.429871,505.241669 224.815399,505.616852 230.932632,505.618591 
	C279.429504,505.632233 327.926361,505.634521 376.423248,505.624298 
	C382.434204,505.623047 382.831085,505.234375 382.849304,498.959259 
	C382.896301,482.793732 382.981262,466.627289 382.851532,450.462799 
	C382.781891,441.784821 383.083008,433.115021 383.997681,424.518097 
	C386.155701,404.235168 392.950684,385.347778 402.185577,367.268890 
	C402.915100,365.840698 404.148071,364.489777 403.444885,362.656982 
	C402.460907,361.478516 401.091187,361.500488 399.769836,361.398102 
	C373.651337,359.375000 351.843048,348.461823 333.988007,329.445343 
	C328.525269,323.627289 327.871490,318.757172 331.917145,315.172516 
	C335.883911,311.657776 339.942047,312.681854 345.507538,318.575012 
	C362.666748,336.744507 383.698181,345.838470 408.737183,345.794800 
	C412.660339,345.787933 415.184052,344.583893 417.274994,341.145264 
	C424.373260,329.471985 431.889313,318.053253 439.025421,306.402283 
	C452.928070,283.703644 464.681824,260.053802 470.070251,233.714767 
	C470.882568,229.744110 472.568359,225.781540 471.170410,221.676834 
	C468.754211,220.777512 467.060822,222.157990 465.273438,222.895950 
	C452.203766,228.292267 438.682770,231.312408 424.476105,231.410980 
	C412.518951,231.493942 400.949310,229.610031 389.635773,225.847275 
	C384.033112,223.983887 383.974884,224.173584 382.269653,230.118896 
	C380.849457,235.070480 379.067993,239.918442 377.183014,245.534515 
M254.430466,54.055988 
	C266.240326,65.465477 275.236725,78.745621 280.781433,94.237091 
	C281.889618,97.333237 283.592285,98.674446 286.865082,99.028275 
	C295.631256,99.975998 304.331787,101.349365 312.749542,104.187279 
	C318.850067,106.243958 319.288544,106.006187 320.987457,99.653854 
	C325.685974,82.085930 334.097443,66.581581 346.501831,53.278748 
	C350.368103,49.132442 354.432861,45.162544 359.200104,42.040192 
	C362.094360,40.144558 365.215668,40.058289 368.144623,41.986740 
	C370.763672,43.711136 371.576477,46.361511 371.312439,49.396400 
	C371.038574,52.544472 368.785461,54.358627 366.636658,56.195805 
	C339.883484,79.069160 329.306458,108.226204 335.575378,142.504745 
	C346.648621,203.053757 414.848694,234.636398 469.159485,203.195038 
	C472.791229,201.092560 473.974426,198.382629 473.980530,194.249924 
	C474.009796,174.464859 471.501373,155.048874 465.662170,136.157196 
	C448.828888,81.696220 413.653168,44.495029 359.392670,26.838621 
	C312.972382,11.733430 265.900696,13.617543 219.004272,25.666475 
	C217.382782,26.083084 214.841980,26.081732 214.912537,28.532082 
	C214.976013,30.735775 217.352112,31.051756 218.986557,31.681572 
	C232.053131,36.716686 243.735489,43.931519 254.430466,54.055988 
M189.663483,219.933380 
	C239.217499,216.090729 276.901459,170.310928 270.854401,120.913551 
	C265.779694,79.459259 234.678604,47.334911 193.531082,41.512688 
	C186.068253,40.456730 179.355057,41.468800 172.732941,45.927231 
	C149.359680,61.663559 132.094543,82.116875 121.972412,108.522049 
	C113.740669,129.995834 112.096848,152.390366 110.896645,175.117508 
	C110.352585,185.419785 114.488953,191.277588 121.264275,196.983032 
	C122.665810,198.163269 124.032715,199.388199 125.477699,200.512711 
	C144.106247,215.010056 165.070526,221.964859 189.663483,219.933380 
M289.375244,238.379242 
	C301.436066,239.831650 302.344421,238.991592 301.621948,227.054321 
	C301.611877,226.888672 301.605804,226.722305 301.608582,226.556442 
	C301.657166,223.645004 300.186829,222.301498 297.317535,222.343521 
	C295.159576,222.375122 293.000824,222.345779 290.842529,222.362015 
	C289.392334,222.372910 287.913849,222.868118 287.836945,224.388153 
	C287.607758,228.918716 286.094330,233.571625 289.375244,238.379242 
M271.239777,224.477997 
	C267.170044,221.063171 259.145721,221.347229 257.956360,225.091324 
	C256.839844,228.606018 257.315155,232.323685 257.552795,235.951920 
	C257.646912,237.389420 258.724121,238.198959 260.140625,238.612289 
	C268.034149,240.915543 271.658813,238.292557 271.617584,230.239868 
	C271.609131,228.584396 271.530670,226.929306 271.239777,224.477997 
M320.052277,238.607117 
	C321.370880,238.647629 322.689484,238.721024 324.008118,238.722305 
	C327.556091,238.725739 330.071564,237.030563 331.210327,233.728745 
	C332.358826,230.398529 331.031128,227.477631 328.677124,225.189758 
	C326.177155,222.760086 323.021118,221.804077 319.550873,222.674911 
	C318.874390,222.844696 317.872009,223.710739 317.869690,224.259232 
	C317.849792,229.004990 315.548798,234.013901 320.052277,238.607117 
M227.963562,230.152023 
	C227.873642,236.279419 230.217651,238.461487 236.178055,238.767426 
	C242.368713,239.085220 241.695145,235.010605 241.637268,231.134247 
	C241.627335,230.467880 241.683029,229.796829 241.623474,229.135590 
	C241.422745,226.906509 242.473938,224.040833 239.798462,222.855347 
	C236.822845,221.536896 233.903641,222.625336 231.405960,224.562439 
	C229.797211,225.810104 228.592712,227.398697 227.963562,230.152023 
z"/>
<path fill="#000000" opacity="1.000000" stroke="none" 
	d="
M398.225677,285.460449 
	C398.467346,279.659912 400.878632,276.376129 406.507477,275.554352 
	C410.643738,274.950439 413.082458,272.406982 412.760376,267.973755 
	C412.490326,264.256165 410.080566,262.087799 406.640198,261.846619 
	C402.362396,261.546692 400.066925,264.081970 399.233612,268.310852 
	C398.081451,274.157867 394.928131,276.799438 390.281769,276.284821 
	C385.675293,275.774628 383.309906,272.276306 383.585754,266.381622 
	C384.069702,256.041351 393.032104,246.957291 403.923401,245.767838 
	C414.356750,244.628403 424.942963,251.780289 428.022339,262.048676 
	C430.945190,271.795197 427.282013,282.045471 418.571350,287.718231 
	C416.067657,289.348724 414.375061,290.947906 413.851227,294.159149 
	C413.103302,298.744263 409.319092,301.714325 405.533264,301.126617 
	C401.239624,300.460052 398.774323,297.759521 398.448547,293.358978 
	C398.264832,290.877319 398.272797,288.381500 398.225677,285.460449 
z"/>
<path fill="#000000" opacity="1.000000" stroke="none" 
	d="
M298.257782,189.719650 
	C296.505920,187.730469 295.695374,185.772171 295.695679,183.515900 
	C295.696655,175.540192 295.536560,167.559250 295.778931,159.590652 
	C295.937592,154.376358 299.372925,151.247284 303.947784,151.447357 
	C308.287628,151.637146 311.131470,154.803207 311.356995,159.808731 
	C311.454132,161.964951 311.480560,164.132385 311.383423,166.287720 
	C311.156616,171.320557 310.943054,175.597870 317.079865,178.387604 
	C322.562469,180.879990 321.256256,189.467545 315.325287,191.310089 
	C309.769043,193.036209 303.894745,193.552200 298.257782,189.719650 
z"/>
<path fill="#000000" opacity="1.000000" stroke="none" 
	d="
M398.018036,317.467834 
	C399.719025,313.127106 402.562103,310.712646 406.910797,311.082764 
	C410.530029,311.390808 413.097107,313.654724 414.070648,317.178009 
	C414.992188,320.513245 413.881744,323.426544 411.241791,325.693207 
	C408.679016,327.893616 405.608856,328.089752 402.782745,326.842834 
	C399.061707,325.201080 397.511230,321.947662 398.018036,317.467834 
z"/>
<path fill="#000000" opacity="1.000000" stroke="none" 
	d="
M411.281677,155.947906 
	C428.775848,155.589767 443.821838,160.675262 456.364380,172.446930 
	C460.892548,176.696854 461.539856,180.996826 458.372192,184.602722 
	C455.144470,188.276962 450.503418,188.433884 446.092529,184.289215 
	C428.600372,167.852875 399.993286,168.069443 383.081757,184.571579 
	C379.118652,188.438736 374.258972,188.228195 371.140259,184.815659 
	C367.884369,181.253052 368.226044,176.879410 372.347992,172.908890 
	C383.084564,162.566864 396.087494,157.282578 411.281677,155.947906 
z"/>
<path fill="#000000" opacity="1.000000" stroke="none" 
	d="
M281.366150,58.950623 
	C283.313293,55.144535 288.158783,53.469196 288.465973,49.766438 
	C288.771301,46.086254 283.998352,44.382652 282.109955,41.295780 
	C279.953247,37.770248 279.869812,34.247890 282.806030,31.238905 
	C285.927277,28.040327 289.508209,28.061211 293.185913,30.591665 
	C296.035583,32.552399 297.655762,36.932331 301.197571,36.841499 
	C304.670197,36.752438 306.287109,32.415440 309.194916,30.490374 
	C312.736328,28.145832 316.077332,28.119511 319.155670,31.119997 
	C322.234772,34.121235 322.866333,38.443672 320.020844,40.981640 
	C313.193176,47.071388 313.019501,51.915562 320.013672,58.011536 
	C322.962738,60.581871 322.151489,64.888100 319.101379,67.836014 
	C316.038422,70.796364 312.674011,70.840988 309.155640,68.387550 
	C306.310974,66.403908 304.708801,62.095058 301.158295,62.056675 
	C297.580078,62.017990 296.065033,66.449089 293.150848,68.338425 
	C290.269684,70.206352 287.357941,70.988022 284.311401,68.950966 
	C280.784241,66.592575 280.040588,63.228909 281.366150,58.950623 
z"/>
<path fill="#000000" opacity="1.000000" stroke="none" 
	d="
M370.663147,142.613220 
	C364.794952,141.699493 360.076447,139.349960 356.320343,135.318604 
	C353.029572,131.786682 352.900360,127.793709 355.686249,124.498672 
	C358.413086,121.273460 362.666260,120.575539 366.427704,123.482506 
	C371.738220,127.586693 376.484985,127.544746 381.805267,123.461655 
	C385.742828,120.439720 390.112701,121.316254 392.861938,124.887718 
	C395.334686,128.100006 394.932953,132.438004 391.602631,135.690628 
	C385.900177,141.260086 379.022766,143.598221 370.663147,142.613220 
z"/>
<path fill="#000000" opacity="1.000000" stroke="none" 
	d="
M414.934784,139.269348 
	C413.053986,137.843216 411.337463,136.745804 409.993805,135.301483 
	C406.949341,132.028961 406.759033,127.425468 409.484497,124.426430 
	C412.540955,121.063164 416.104462,120.935432 419.848602,123.230225 
	C421.683685,124.354935 423.230347,125.984871 425.429138,126.461769 
	C428.948853,127.225136 431.862976,126.076607 434.720917,123.963638 
	C439.124908,120.707611 443.350739,121.078445 446.279968,124.572945 
	C449.332153,128.214035 448.692932,132.604446 444.545319,136.486420 
	C436.988708,143.559143 425.527771,144.715576 414.934784,139.269348 
z"/>
<path fill="#000000" opacity="1.000000" stroke="none" 
	d="
M135.357880,159.481842 
	C133.123138,155.335281 131.380142,151.388290 130.290039,147.168457 
	C128.939636,141.940964 130.923996,137.819977 135.520142,136.404266 
	C139.784637,135.090729 143.702332,137.343292 145.331924,142.484161 
	C150.074142,157.444275 159.757858,166.938858 175.371780,169.819977 
	C192.138000,172.913757 208.926315,163.854523 215.725250,148.194824 
	C216.584396,146.215973 217.168045,144.119370 217.947388,142.103638 
	C219.742126,137.461563 223.575882,135.219543 227.631332,136.390793 
	C232.121246,137.687515 234.324020,141.502808 233.094131,146.635834 
	C231.202026,154.532715 227.540207,161.617157 222.184006,167.727448 
	C197.618423,195.751663 154.750656,191.810562 135.357880,159.481842 
z"/>
<path fill="#000000" opacity="1.000000" stroke="none" 
	d="
M204.393158,118.982750 
	C204.373779,122.475822 204.405457,125.474098 204.323654,128.469284 
	C204.200089,132.994568 201.671616,135.689102 197.358444,136.193970 
	C192.898819,136.715988 189.514648,134.227036 189.092163,129.974838 
	C188.155121,120.543777 188.101868,111.001465 189.104797,101.576569 
	C189.562515,97.275246 193.059555,95.157196 197.558945,95.689903 
	C201.819077,96.194290 204.147980,98.787170 204.300781,103.003670 
	C204.487610,108.158981 204.375977,113.325119 204.393158,118.982750 
z"/>
<path fill="#000000" opacity="1.000000" stroke="none" 
	d="
M174.394867,109.075836 
	C174.387604,115.729012 174.476517,121.896309 174.342224,128.058746 
	C174.236267,132.921295 171.117065,136.177170 166.788040,136.305573 
	C162.439194,136.434570 158.962067,133.373520 158.798111,128.448746 
	C158.521072,120.126785 158.551498,111.786232 158.743240,103.460182 
	C158.856979,98.520683 162.109619,95.562195 166.637878,95.609077 
	C171.269547,95.657028 174.088303,98.542564 174.356476,103.589882 
	C174.444778,105.251862 174.386215,106.921646 174.394867,109.075836 
z"/>
</svg>